<svg xmlns="http://www.w3.org/2000/svg" width="23" height="25" viewBox="0 0 23 25" fill="none">
<path fill-rule="evenodd" clip-rule="evenodd" d="M21.8207 14.4285C21.8207 20.138 17.2004 24.7691 11.4998 24.7691C5.79911 24.7691 1.17969 20.138 1.17969 14.4285C1.17969 9.36545 4.24143 7.09699 7.52425 3.81055L12.5977 8.89168L10.0484 11.4455L7.47898 8.86967C5.99426 10.3971 4.79523 12.0755 4.79523 14.4285C4.79523 16.21 5.50164 17.9184 6.75907 19.1781C8.0165 20.4377 9.72193 21.1454 11.5002 21.1454C13.2785 21.1454 14.9839 20.4377 16.2413 19.1781C17.4988 17.9184 18.2052 16.21 18.2052 14.4285C18.2052 12.8346 17.6544 11.5498 16.8387 10.4112L19.3923 7.85168C20.8388 9.6063 21.8207 11.5657 21.8207 14.4285" fill="white"/>
<path fill-rule="evenodd" clip-rule="evenodd" d="M11.6197 0C13.744 2.14107 15.896 4.26651 18.0087 6.41755L15.5481 8.89152C13.4846 6.76174 11.2238 4.62067 9.11719 2.51737L11.6197 0Z" fill="white"/>
</svg>