<svg width="713" height="631" viewBox="0 0 713 631" fill="none" xmlns="http://www.w3.org/2000/svg">
<path fill-rule="evenodd" clip-rule="evenodd" d="M397.886 0.000976562H0.335938V0.00112512H0.999023C48.2789 131.839 172.276 171.546 252.824 176.838H397.885V176.84C473.581 177.198 534.834 238.672 534.834 314.452C534.834 390.454 473.222 452.066 397.221 452.066C321.44 452.066 259.966 390.813 259.609 315.117H82.7703C82.7703 377.44 101.251 438.365 135.877 490.185C170.502 542.005 219.716 582.394 277.296 606.245C334.876 630.095 398.235 636.335 459.361 624.177C520.487 612.018 576.635 582.006 620.705 537.936C664.774 493.867 694.786 437.719 706.945 376.592C719.104 315.466 712.863 252.107 689.013 194.527C665.163 136.948 624.774 87.7335 572.953 53.1083C521.133 18.4831 460.209 0.00199695 397.886 0.00185894V0.000976562ZM288.858 0.00112512H288.857L288.858 0.33395V0.00112512Z" fill="white"/>
</svg>
